<?xml version="1.0" encoding="UTF-8" standalone="no"?>
<svg
   xmlns:dc="http://purl.org/dc/elements/1.1/"
   xmlns:cc="http://creativecommons.org/ns#"
   xmlns:rdf="http://www.w3.org/1999/02/22-rdf-syntax-ns#"
   xmlns:svg="http://www.w3.org/2000/svg"
   xmlns="http://www.w3.org/2000/svg"
   viewBox="0 0 434.72 61.986668"
   height="61.986668"
   width="434.72"
   xml:space="preserve"
   id="svg2"
   version="1.1"><metadata
     id="metadata8"><rdf:RDF><cc:Work
         rdf:about=""><dc:format>image/svg+xml</dc:format><dc:type
           rdf:resource="http://purl.org/dc/dcmitype/StillImage" /></cc:Work></rdf:RDF></metadata><defs
     id="defs6" /><g
     transform="matrix(1.3333333,0,0,-1.3333333,0,61.986667)"
     id="g10"><g
       transform="scale(0.1)"
       id="g12"><path
         id="path14"
         style="fill:#db2027;fill-opacity:1;fill-rule:nonzero;stroke:none"
         d="M 1203.57,459.031 V 331.781 H 1098.2 v 127.25 h -60.79 V 147.656 h 60.79 v 130.348 h 105.37 V 147.656 h 60.78 v 311.375 h -60.78" /><path
         id="path16"
         style="fill:#db2027;fill-opacity:1;fill-rule:nonzero;stroke:none"
         d="M 1405.23,459.031 1291.97,147.664 h 63.39 l 18.79,55.098 h 110.67 l 18.34,-55.098 h 63.43 l -113.7,311.367 z m 25.36,-91.816 38.01,-113.301 h -77.38 z" /><path
         id="path18"
         style="fill:#db2027;fill-opacity:1;fill-rule:nonzero;stroke:none"
         d="m 2063.82,177.391 c -20.53,-20.536 -49.84,-29.735 -82.18,-29.735 h -112.38 v 311.375 h 112.38 c 32.34,0 61.65,-9.191 82.18,-29.738 34.99,-34.973 31.51,-77.82 31.51,-124.629 0,-46.773 3.48,-92.281 -31.51,-127.273 m -42.38,208.179 c -10.5,12.696 -24.51,19.219 -45.5,19.219 h -45.93 V 201.898 h 45.93 c 20.99,0 35,6.579 45.5,19.25 11.36,13.981 13.11,36.29 13.11,83.516 0,47.211 -1.75,66.918 -13.11,80.906" /><path
         id="path20"
         style="fill:#db2027;fill-opacity:1;fill-rule:nonzero;stroke:none"
         d="m 2427.71,459.031 -48.53,-196.336 -56.84,196.336 h -45.49 l -56.86,-196.336 -48.11,196.336 h -63.41 l 83.1,-311.375 h 50.72 l 57.27,188.926 57.3,-188.926 h 50.75 l 83.51,311.375 h -63.41" /><path
         id="path22"
         style="fill:#db2027;fill-opacity:1;fill-rule:nonzero;stroke:none"
         d="M 2591.26,459.031 2477.99,147.664 h 63.43 l 18.77,55.098 h 110.67 l 18.36,-55.098 h 63.39 l -113.7,311.367 z m 25.36,-91.816 38.05,-113.301 h -77.41 z" /><path
         id="path24"
         style="fill:#db2027;fill-opacity:1;fill-rule:nonzero;stroke:none"
         d="m 2945.51,147.656 -60.79,124.207 H 2841 V 147.656 h -60.79 v 311.375 h 122 c 63.37,0 101.03,-43.312 101.03,-95.332 0,-43.754 -26.68,-70.855 -56.86,-81.789 l 69.55,-134.254 z m -47.25,257.133 H 2841 v -82.207 h 57.26 c 26.69,0 44.17,17.07 44.17,41.117 0,24.043 -17.48,41.09 -44.17,41.09" /><path
         id="path26"
         style="fill:#db2027;fill-opacity:1;fill-rule:nonzero;stroke:none"
         d="M 3055.29,459.031 V 147.656 h 205.1 v 54.235 h -144.35 v 75.66 h 122.91 v 54.23 h -122.91 v 73.02 h 144.35 v 54.23 h -205.1" /><path
         id="path28"
         style="fill:#db2027;fill-opacity:1;fill-rule:nonzero;stroke:none"
         d="m 1760.35,281.898 c 30.17,10.957 56.85,38.047 56.85,81.801 0,42.821 -25.51,79.66 -69.91,91.367 v -65.304 c 5.73,-6.949 9.12,-15.797 9.12,-26.063 0,-24.062 -17.5,-41.117 -44.18,-41.117 h -40.84 v -50.707 h 27.3 l 60.77,-124.219 h 70.38 l -69.49,134.242" /><path
         id="path30"
         style="fill:#db2027;fill-opacity:1;fill-rule:nonzero;stroke:none"
         d="m 1601.3,367.195 47.28,-1.535 6.84,-209.898 c 0.14,-9.407 -8.11,-17.395 -17.86,-17.207 l -25.55,0.8 c -9.42,-0.07 -17.34,8.153 -17.18,17.872 z m 123.91,80.926 -0.41,-35.312 c -0.1,-7.145 -5.7,-12.539 -13.17,-12.743 l -8.11,0.504 c -5.53,-0.218 -11.58,3.434 -12.17,7.356 1.03,4.836 -5.66,9.844 -16.37,9.734 -15.88,0.625 -26.43,-8.91 -26.26,-17.051 -0.37,-2.855 -0.24,-13.593 -0.24,-13.593 l -47.65,0.582 0.2,7.789 c 0,0 0,1.937 -0.24,6.164 0.25,14.894 -15.91,15.855 -15.91,15.855 -41.83,0.489 -71.54,-28.785 -71.54,-28.785 l -7.63,7.305 c 45.44,73.687 93.67,69.172 109.86,68.867 14.9,-0.281 30.51,-0.551 34.36,-0.617 8.42,-0.207 15.9,-16.512 28.84,-17.422 5.84,-0.117 11.05,2.394 14.06,5.223 0.46,6.164 6.68,10.226 12.13,9.836 l 7.5,-0.465 c 7.13,-0.121 12.51,-5.746 12.75,-13.227" /><path
         id="path32"
         style="fill:#231f20;fill-opacity:1;fill-rule:nonzero;stroke:none"
         d="M 3.04297,72.6055 V 62.8008 H 22.8555 V 0.613281 H 33.7734 V 62.8008 h 19.836 v 9.8047 H 3.04297" /><path
         id="path34"
         style="fill:#231f20;fill-opacity:1;fill-rule:nonzero;stroke:none"
         d="M 117.703,72.6055 V 41.8828 H 88.4688 V 72.6055 H 77.5547 V 0.613281 H 88.4688 V 32.0586 H 117.703 V 0.613281 h 10.926 V 72.6055 h -10.926" /><path
         id="path36"
         style="fill:#231f20;fill-opacity:1;fill-rule:nonzero;stroke:none"
         d="M 158.941,72.6055 V 0.613281 h 46.032 V 10.4102 h -35.129 v 21.6484 h 29.957 v 9.7187 h -29.957 v 21.0235 h 35.129 v 9.8047 h -46.032" /><path
         id="path38"
         style="fill:#231f20;fill-opacity:1;fill-rule:nonzero;stroke:none"
         d="M 285.016,72.6055 258.629,0.613281 h 11.621 l 4.977,14.484419 h 28.402 l 4.957,-14.484419 h 11.641 L 293.809,72.6055 Z m 4.672,-16.2578 10.914,-31.9649 h -22.164 z" /><path
         id="path40"
         style="fill:#231f20;fill-opacity:1;fill-rule:nonzero;stroke:none"
         d="M 366.609,0 C 351.941,0 340.82,10.0195 340.82,24.8906 v 47.7461 h 10.934 V 25.3906 c 0,-9.6015 5.848,-15.5781 14.855,-15.5781 9,0 14.969,5.9766 14.969,15.5781 v 47.2461 h 10.926 V 24.8906 C 392.504,10.0195 381.289,0 366.609,0" /><path
         id="path42"
         style="fill:#231f20;fill-opacity:1;fill-rule:nonzero;stroke:none"
         d="m 415.328,72.6055 v -9.8047 h 19.824 V 0.613281 h 10.926 V 62.8008 h 19.82 v 9.8047 h -50.57" /><path
         id="path44"
         style="fill:#231f20;fill-opacity:1;fill-rule:nonzero;stroke:none"
         d="M 529.996,72.6055 V 41.8828 H 500.762 V 72.6055 H 489.844 V 0.613281 h 10.918 V 32.0586 h 29.234 V 0.613281 h 10.926 V 72.6055 h -10.926" /><path
         id="path46"
         style="fill:#231f20;fill-opacity:1;fill-rule:nonzero;stroke:none"
         d="M 613.516,7.70313 C 608.559,2.73438 602.188,0 594.488,0 c -7.675,0 -13.953,2.73438 -18.914,7.70313 -7.082,7.06247 -6.976,15.05857 -6.976,28.92967 0,13.8438 -0.106,21.836 6.976,28.9141 4.961,4.9492 11.239,7.6836 18.914,7.6836 7.7,0 14.071,-2.7344 19.028,-7.6836 7.074,-7.0781 6.871,-15.0703 6.871,-28.9141 0,-13.8711 0.203,-21.8672 -6.871,-28.92967 m -8.313,51.24997 c -2.508,2.7461 -6.457,4.4649 -10.715,4.4649 -4.238,0 -8.187,-1.7188 -10.718,-4.4649 -3.54,-3.8242 -4.239,-7.8672 -4.239,-22.3203 0,-14.4648 0.699,-18.5273 4.239,-22.3672 2.531,-2.7422 6.48,-4.46091 10.718,-4.46091 4.258,0 8.207,1.71871 10.715,4.46091 3.547,3.8399 4.254,7.9024 4.254,22.3672 0,14.4531 -0.707,18.4961 -4.254,22.3203" /><path
         id="path48"
         style="fill:#231f20;fill-opacity:1;fill-rule:nonzero;stroke:none"
         d="M 687.82,0.613281 672.645,30.9375 H 658.988 V 0.613281 H 648.059 V 72.6055 h 27.925 c 13.661,0 22.356,-8.7774 22.356,-21.0039 0,-10.3438 -6.266,-16.9141 -14.363,-19.1211 L 700.563,0.613281 Z M 675.168,62.8008 h -16.18 V 40.2422 h 16.18 c 7.281,0 12.242,4.1523 12.242,11.2422 0,7.0781 -4.961,11.3164 -12.242,11.3164" /><path
         id="path50"
         style="fill:#231f20;fill-opacity:1;fill-rule:nonzero;stroke:none"
         d="m 725.816,0.613281 h 10.922 V 72.6055 H 725.816 V 0.613281" /><path
         id="path52"
         style="fill:#231f20;fill-opacity:1;fill-rule:nonzero;stroke:none"
         d="m 760.703,72.6055 v -9.8047 h 19.801 V 0.613281 H 791.43 V 62.8008 h 19.836 v 9.8047 h -50.563" /><path
         id="path54"
         style="fill:#231f20;fill-opacity:1;fill-rule:nonzero;stroke:none"
         d="M 868.379,72.6055 853.316,40.9688 838.246,72.6055 H 826.309 L 847.855,30.2344 V 0.613281 h 10.918 V 30.2344 l 21.543,42.3711 h -11.937" /><path
         id="path56"
         style="fill:#231f20;fill-opacity:1;fill-rule:nonzero;stroke:none"
         d="M 979.801,7.70313 C 974.844,2.73438 968.477,0 960.793,0 c -7.691,0 -13.969,2.73438 -18.93,7.70313 -7.078,7.06247 -6.976,15.05857 -6.976,28.92967 0,13.8438 -0.102,21.836 6.976,28.9141 4.961,4.9492 11.239,7.6836 18.93,7.6836 7.684,0 14.051,-2.7344 19.008,-7.6836 7.078,-7.0781 6.879,-15.0703 6.879,-28.9141 0,-13.8711 0.199,-21.8672 -6.879,-28.92967 m -8.285,51.24997 c -2.532,2.7461 -6.477,4.4649 -10.723,4.4649 -4.254,0 -8.203,-1.7188 -10.73,-4.4649 -3.524,-3.8242 -4.243,-7.8672 -4.243,-22.3203 0,-14.4648 0.719,-18.5273 4.243,-22.3672 2.527,-2.7422 6.476,-4.46091 10.73,-4.46091 4.246,0 8.191,1.71871 10.723,4.46091 3.535,3.8399 4.242,7.9024 4.242,22.3672 0,14.4531 -0.707,18.4961 -4.242,22.3203" /><path
         id="path58"
         style="fill:#231f20;fill-opacity:1;fill-rule:nonzero;stroke:none"
         d="M 1057.64,72.6055 V 22.0586 l -33.27,50.5469 h -10.02 V 0.613281 h 10.93 V 51.2695 l 33.28,-50.656219 h 10 V 72.6055 h -10.92" /><path
         id="path60"
         style="fill:#231f20;fill-opacity:1;fill-rule:nonzero;stroke:none"
         d="m 1128.29,72.6055 v -9.8047 h 19.84 V 0.613281 h 10.91 V 62.8008 h 19.82 v 9.8047 h -50.57" /><path
         id="path62"
         style="fill:#231f20;fill-opacity:1;fill-rule:nonzero;stroke:none"
         d="M 1202.82,72.6055 V 0.613281 h 46.02 V 10.4102 h -35.12 v 21.6484 h 29.96 v 9.7187 h -29.96 v 21.0235 h 35.12 v 9.8047 h -46.02" /><path
         id="path64"
         style="fill:#231f20;fill-opacity:1;fill-rule:nonzero;stroke:none"
         d="m 1298.56,0 c -7.48,0 -13.96,2.74219 -18.91,7.67578 -7.07,7.08982 -6.98,15.07812 -6.98,28.94532 0,13.8555 -0.09,21.8359 6.98,28.9336 4.95,4.9414 11.43,7.6758 18.91,7.6758 13.25,0 23.17,-7.8008 25.69,-22.1446 h -11.12 c -1.73,7.2735 -6.58,12.3321 -14.57,12.3321 -4.25,0 -8.09,-1.6016 -10.63,-4.3555 -3.52,-3.8203 -4.34,-7.9766 -4.34,-22.4414 0,-14.4727 0.82,-18.6133 4.34,-22.4492 2.54,-2.7266 6.38,-4.3594 10.63,-4.3594 7.99,0 12.95,5.0703 14.67,12.3359 h 11.02 C 1321.83,7.80078 1311.61,0 1298.56,0" /><path
         id="path66"
         style="fill:#231f20;fill-opacity:1;fill-rule:nonzero;stroke:none"
         d="M 1390.47,72.6055 V 41.8828 h -29.23 v 30.7227 h -10.93 V 0.613281 h 10.93 V 32.0586 h 29.23 V 0.613281 h 10.92 V 72.6055 h -10.92" /><path
         id="path68"
         style="fill:#211d1d;fill-opacity:1;fill-rule:nonzero;stroke:none"
         d="m 90.1953,138.555 c -46.3867,0 -66.0859,32.8 -66.0859,65.211 v 112.91 H 0 v 43.328 h 24.1094 v 67.422 H 80.9609 V 360.004 H 121.273 V 316.676 H 80.9609 V 207.281 c 0,-13.125 6.1641,-20.597 19.7231,-20.597 h 20.589 V 138.555 H 90.1953" /><path
         id="path70"
         style="fill:#211d1d;fill-opacity:1;fill-rule:nonzero;stroke:none"
         d="m 318.219,163.926 c -13.989,-14.883 -37.188,-28.008 -70.91,-28.008 -33.672,0 -56.493,13.125 -70.489,28.008 -20.547,21.445 -25.789,47.265 -25.789,88.828 0,41.168 5.242,66.988 25.789,88.398 13.996,14.895 36.817,28.028 70.489,28.028 33.722,0 56.921,-13.133 70.91,-28.028 20.594,-21.41 25.804,-47.23 25.804,-88.398 0,-41.563 -5.21,-67.383 -25.804,-88.828 m -44.227,144.023 c -6.535,6.508 -15.285,10.024 -26.683,10.024 -11.403,0 -19.719,-3.516 -26.293,-10.024 -11.778,-11.847 -13.071,-31.539 -13.071,-55.195 0,-23.645 1.293,-43.754 13.071,-55.559 6.574,-6.562 14.89,-10.05 26.293,-10.05 11.398,0 20.148,3.488 26.683,10.05 11.844,11.805 13.153,31.914 13.153,55.559 0,23.656 -1.309,43.348 -13.153,55.195" /><path
         id="path72"
         style="fill:#211d1d;fill-opacity:1;fill-rule:nonzero;stroke:none"
         d="M 643.777,138.555 V 276.41 c 0,31.078 -19.675,41.586 -37.609,41.586 -17.512,0 -38.098,-10.508 -38.098,-40.301 V 138.555 H 511.184 V 276.41 c 0,31.078 -19.723,41.586 -37.661,41.586 -17.918,0 -38.07,-10.508 -38.07,-41.586 V 138.555 h -56.906 v 228.023 h 55.574 v -21.015 c 14.906,15.335 35.934,23.656 56.953,23.656 25.352,0 45.914,-9.215 60.356,-28.906 19.254,20.121 39.82,28.906 68.265,28.906 22.789,0 43.352,-7.465 56.012,-20.141 18.426,-18.402 24.992,-39.832 24.992,-64.758 V 138.555 h -56.922" /><path
         id="path74"
         style="fill:#211d1d;fill-opacity:1;fill-rule:nonzero;stroke:none"
         d="m 731.211,350.785 v 99.367 h 59.508 v -54.293 l -59.508,-45.074" /><path
         id="path76"
         style="fill:#211d1d;fill-opacity:1;fill-rule:nonzero;stroke:none"
         d="m 870.426,135.918 c -35.906,0 -68.324,3.926 -97.211,32.801 l 37.199,37.215 c 18.832,-18.789 43.371,-21.438 60.832,-21.438 19.699,0 40.309,6.539 40.309,23.668 0,11.316 -6.196,19.219 -24.078,20.977 l -35.934,3.492 c -41.129,3.961 -66.477,21.879 -66.477,63.898 0,47.297 41.551,72.688 87.918,72.688 35.508,0 65.258,-6.145 87.153,-26.739 l -35.008,-35.453 c -13.156,11.825 -33.297,15.34 -52.996,15.34 -22.735,0 -32.422,-10.512 -32.422,-21.898 0,-8.317 3.508,-17.934 23.668,-19.649 l 35.906,-3.515 c 45.067,-4.399 67.848,-28.489 67.848,-67.004 0,-50.285 -42.934,-74.383 -96.707,-74.383" /></g></g></svg>
